<svg id="Layer_1" data-name="Layer 1" xmlns="http://www.w3.org/2000/svg" viewBox="0 0 100.66 101.63"><defs><style>.cls-1,.cls-2{fill:none;stroke:#000;stroke-miterlimit:10;}.cls-1{stroke-width:2px;}.cls-3{fill:red;}</style></defs><ellipse class="cls-1" cx="50.33" cy="50.82" rx="49.33" ry="49.82"/><path d="M7179.25,7203.94a6.39,6.39,0,0,1-2.34,1.46,5.92,5.92,0,0,1-2.49.31,6.73,6.73,0,0,1-2.45-.74,8.28,8.28,0,0,1-3.11-2.87,5.91,5.91,0,0,1-.68-1.44,3.64,3.64,0,0,1-.16-1.49,2.15,2.15,0,0,1,.7-1.34,1,1,0,0,1,.74-.3,1,1,0,0,1,.72.34,1,1,0,0,1,0,1.46.48.48,0,0,0-.06.53,4,4,0,0,0,.34.79c.16.28.32.53.48.76l.37.46a6.5,6.5,0,0,0,1.51,1.18,4.61,4.61,0,0,0,1.67.57,3.77,3.77,0,0,0,1.72-.16,4.42,4.42,0,0,0,1.65-1,4.81,4.81,0,0,0,1.25-1.81,4.15,4.15,0,0,0,.21-1.83,4.61,4.61,0,0,0-.56-1.7,6.45,6.45,0,0,0-1-1.44,4.35,4.35,0,0,0-1.39-1,4.2,4.2,0,0,0-1.52-.34,7.83,7.83,0,0,0-1.65.12c-.57.1-1.16.21-1.76.34s-1.19.23-1.79.33a8.11,8.11,0,0,1-1.76.1,5.31,5.31,0,0,1-1.65-.36,4.18,4.18,0,0,1-1.51-1.06,4.69,4.69,0,0,1-1-1.59,4.8,4.8,0,0,1-.32-1.79,4.64,4.64,0,0,1,.39-1.78,5.41,5.41,0,0,1,4.52-3.09,4.53,4.53,0,0,1,3.32,1.59,8.56,8.56,0,0,1,.58.69,5,5,0,0,1,.58.93,3,3,0,0,1,.28,1,.94.94,0,0,1-.3.8,1,1,0,0,1-.74.28,1,1,0,0,1-.72-.31,1,1,0,0,1-.26-.42,2.4,2.4,0,0,0-.31-.73,5.56,5.56,0,0,0-.63-.81,2.43,2.43,0,0,0-1.87-.9,2.91,2.91,0,0,0-1.91.94,2.61,2.61,0,0,0-.86,1.89,2.65,2.65,0,0,0,.77,1.91,2.44,2.44,0,0,0,1.93.8,16.6,16.6,0,0,0,2.82-.42c.63-.13,1.3-.26,2-.38a8.77,8.77,0,0,1,2.11-.11,6.63,6.63,0,0,1,2.14.52,6.07,6.07,0,0,1,2,1.46,8.21,8.21,0,0,1,1.58,2.33,7,7,0,0,1,.61,2.54,5.6,5.6,0,0,1-.48,2.52A7,7,0,0,1,7179.25,7203.94Z" transform="translate(-7148.56 -7148.5)"/><path d="M7179.9,7185.93c.94,1,1.84,2,2.71,3s1.68,2,2.42,2.91l1.37,1.64q.62.75,1.05,1.2a1,1,0,0,1,.28.75,1,1,0,0,1-.32.71,1,1,0,0,1-1.46,0c-.32-.33-.69-.75-1.1-1.25l-1.41-1.68c-.75-.91-1.54-1.88-2.4-2.89s-1.73-2-2.63-2.94l-.78-.79c-.34-.34-.72-.71-1.15-1.11s-.89-.79-1.38-1.17a9.72,9.72,0,0,0-1.42-.92,4,4,0,0,0-1.32-.43,1.19,1.19,0,0,0-1,.3,1,1,0,0,1-.75.29,1,1,0,0,1-.71-.32,1,1,0,0,1-.3-.74,1,1,0,0,1,.33-.73,3,3,0,0,1,1.67-.85,4.45,4.45,0,0,1,1.83.18,8.32,8.32,0,0,1,1.9.89,15.51,15.51,0,0,1,1.79,1.31c.57.48,1.09.95,1.58,1.43S7179.57,7185.58,7179.9,7185.93Z" transform="translate(-7148.56 -7148.5)"/><path d="M7194.77,7189.14a5.53,5.53,0,0,1-3.27,1.62,8.32,8.32,0,0,1-3.52-.38,12.54,12.54,0,0,1-3.39-1.7,17.53,17.53,0,0,1-4.37-4.26,17.58,17.58,0,0,1-1.38-2.25,13.41,13.41,0,0,1-1-2.47,8.34,8.34,0,0,1-.36-2.49,6.67,6.67,0,0,1,.48-2.4,5.91,5.91,0,0,1,1.47-2.15,3.56,3.56,0,0,1,2-1,5,5,0,0,1,2.17.15,7.56,7.56,0,0,1,2.07.95,9.66,9.66,0,0,1,1.71,1.39,8.77,8.77,0,0,1,.76.95,4.84,4.84,0,0,1,.58,1.13,2.56,2.56,0,0,1,.13,1.19,1.74,1.74,0,0,1-.58,1.07,1,1,0,0,1-.75.29,1,1,0,0,1-.71-.33,1,1,0,0,1-.28-.7,1,1,0,0,1,.24-.69,1.7,1.7,0,0,0-.33-.77,5.17,5.17,0,0,0-.56-.71,7.66,7.66,0,0,0-1-.89,5.69,5.69,0,0,0-1.34-.74,4.26,4.26,0,0,0-1.41-.28,1.73,1.73,0,0,0-1.22.5,3.87,3.87,0,0,0-1.27,2.59,7.52,7.52,0,0,0,.43,3,12.56,12.56,0,0,0,1.45,2.88,18.31,18.31,0,0,0,1.81,2.29,17.21,17.21,0,0,0,2.08,1.83,11.08,11.08,0,0,0,2.63,1.52,7.1,7.1,0,0,0,2.8.53,3.75,3.75,0,0,0,2.55-1.12,1.92,1.92,0,0,0,.61-1.38,4.14,4.14,0,0,0-.29-1.63,7.06,7.06,0,0,0-.82-1.56,10.17,10.17,0,0,0-1-1.22c-.18-.19-.35-.34-.5-.48a2.74,2.74,0,0,0-.41-.28l-.05,0c-.25.24-.56.57-.93,1s-.67.79-.9,1.08l-.69.8-.46.49a1.13,1.13,0,0,1-.75.24,1,1,0,0,1-.71-.37,1,1,0,0,1-.24-.75.89.89,0,0,1,.34-.69,4.88,4.88,0,0,0,.39-.42c.19-.21.36-.42.52-.63.33-.38.66-.77,1-1.15a11.76,11.76,0,0,1,1-1.09,2.45,2.45,0,0,1,1.05-.65,1.91,1.91,0,0,1,1,0,2.8,2.8,0,0,1,.92.53,9.25,9.25,0,0,1,.93.87,11.54,11.54,0,0,1,1.48,1.93,7.92,7.92,0,0,1,1,2.3,5.61,5.61,0,0,1,.12,2.37A3.74,3.74,0,0,1,7194.77,7189.14Z" transform="translate(-7148.56 -7148.5)"/><path d="M7194.08,7179.42q-2-2.11-3.94-4.31a51.56,51.56,0,0,1-3.6-4.59,1,1,0,0,1,.15-1.34.9.9,0,0,1,.8-.29,1.35,1.35,0,0,1,.76.42,48.24,48.24,0,0,0,3.49,4.49q1.89,2.14,3.84,4.2c.87.91,1.61,1.64,2.21,2.17-.28-.39-.59-.81-.93-1.25l-1-1.38c-.9-1.21-1.82-2.45-2.75-3.74a33.28,33.28,0,0,1-2.41-3.77c-.27-.51-.53-1.07-.78-1.67a7.84,7.84,0,0,1-.53-1.85,5.15,5.15,0,0,1,0-1.84,2.9,2.9,0,0,1,.9-1.57,3.27,3.27,0,0,1,1.92-1,5.27,5.27,0,0,1,2.17.23,8.71,8.71,0,0,1,2.21,1.05,24.87,24.87,0,0,1,2.13,1.52c.67.55,1.29,1.1,1.85,1.65s1,1,1.4,1.42c.65.68,1.28,1.37,1.88,2.07s1.15,1.38,1.67,2.05,1,1.29,1.39,1.86a16.86,16.86,0,0,1,1,1.5,1,1,0,0,1,.17.68,1,1,0,0,1-.32.61,1.08,1.08,0,0,1-.73.29,1,1,0,0,1-.74-.33.37.37,0,0,1-.11-.17c-.27-.41-.61-.9-1-1.46s-.86-1.16-1.34-1.79-1-1.28-1.6-1.95-1.16-1.32-1.75-1.93c-.22-.24-.54-.56-.95-1s-.89-.86-1.43-1.32-1.11-.93-1.71-1.37a11.65,11.65,0,0,0-1.77-1.11,4.55,4.55,0,0,0-1.62-.5,1.57,1.57,0,0,0-1.27.43,1.23,1.23,0,0,0-.37.82,4,4,0,0,0,.11,1.11,9,9,0,0,0,.42,1.27c.19.44.39.86.61,1.26a32,32,0,0,0,2.3,3.61q1.36,1.89,2.69,3.63l1.55,2.07c.48.64.88,1.21,1.21,1.72.14.22.29.47.45.77a4.77,4.77,0,0,1,.35.9,2.43,2.43,0,0,1,.08.88,1.35,1.35,0,0,1-1.53,1.12,1.46,1.46,0,0,1-.43-.08,3.57,3.57,0,0,1-.61-.29,7,7,0,0,1-.85-.57c-.33-.24-.71-.56-1.16-1C7195.82,7181.2,7195,7180.39,7194.08,7179.42Z" transform="translate(-7148.56 -7148.5)"/><path d="M7188.71,7222.73c.68,1.57,1.44,3.2,2.29,4.87s1.68,3.27,2.5,4.8c.67,1.27,1.3,2.48,1.9,3.64s1.09,2.21,1.47,3.14a13.71,13.71,0,0,1,.57,1.4,7.11,7.11,0,0,1,.32,1.31,3.58,3.58,0,0,1,0,1.14,1.66,1.66,0,0,1-.51.92,2.46,2.46,0,0,1-2,.66,7.76,7.76,0,0,1-2.57-.75,19.49,19.49,0,0,1-2.81-1.65c-1-.67-1.86-1.37-2.7-2.09s-1.61-1.4-2.28-2-1.18-1.14-1.51-1.49c-.78-.81-1.51-1.63-2.18-2.45s-1.28-1.64-1.83-2.45a1.05,1.05,0,0,1,.16-1.33,1,1,0,0,1,1.46,0,.09.09,0,0,1,0,.06.24.24,0,0,0,.06.09,25.91,25.91,0,0,0,1.72,2.3c.64.77,1.33,1.54,2.07,2.33.54.56,1.25,1.25,2.12,2.07s1.8,1.6,2.77,2.36a27.37,27.37,0,0,0,2.92,2,6.26,6.26,0,0,0,2.55.95.73.73,0,0,0,.51-.06,2,2,0,0,0-.08-.68c-.07-.28-.17-.56-.27-.84l-.32-.81c-.11-.26-.2-.47-.26-.64q-.55-1.28-1.38-2.85l-1.74-3.27c-.84-1.55-1.69-3.17-2.55-4.88s-1.64-3.36-2.33-5a1,1,0,0,1,.25-1.14,1,1,0,0,1,.72-.29,1,1,0,0,1,.74.33A1.43,1.43,0,0,1,7188.71,7222.73Z" transform="translate(-7148.56 -7148.5)"/><path d="M7195.69,7228.6q-1.17-1.22-2.1-2.31c-.63-.72-1.18-1.38-1.65-2s-.78-1.11-1.07-1.6a3.76,3.76,0,0,1-.52-1.44,2.68,2.68,0,0,1,.27-1.44,5.92,5.92,0,0,1,1.27-1.62c.25-.24.51-.47.79-.7s.55-.44.83-.65.52-.38.76-.58.45-.38.63-.56a5.59,5.59,0,0,0,.49-.53,1,1,0,0,0,.27-.67.89.89,0,0,1,.34-.79,1,1,0,0,1,1.46,0,1.1,1.1,0,0,1,.32.86,2.48,2.48,0,0,1-.27,1,5.06,5.06,0,0,1-.57.93,5.86,5.86,0,0,1-.61.7c-.24.22-.48.44-.74.65a9.1,9.1,0,0,1-.78.61c-.26.19-.52.38-.77.59s-.49.42-.72.64a3.8,3.8,0,0,0-.6.69,2.27,2.27,0,0,0-.34.68,4.71,4.71,0,0,0,.75,1.33c.41.56.86,1.15,1.36,1.75s1,1.18,1.48,1.71l1.12,1.19c.37-.28.73-.57,1.08-.88s.7-.62,1-.94a12.73,12.73,0,0,0,1.11-1.16,3.23,3.23,0,0,0,.39-.56,1.06,1.06,0,0,1,1-1.48,1,1,0,0,1,.74.33,1.33,1.33,0,0,1,.41,1.15,3,3,0,0,1-.47,1.23,6.74,6.74,0,0,1-.88,1.13c-.33.35-.61.63-.85.86-.68.64-1.37,1.25-2.06,1.82q.9.9,1.77,1.74t1.65,1.5c.51.45,1,.83,1.38,1.16a10.18,10.18,0,0,0,1.05.74,2.42,2.42,0,0,0,.64-.28,6.15,6.15,0,0,0,1.19-.94c.23-.23.5-.5.8-.84a13.29,13.29,0,0,0,.87-1.06,12,12,0,0,0,.73-1.13,3.37,3.37,0,0,0,.4-1,1,1,0,0,1,1.05-.85,1,1,0,0,1,.72.31,1.21,1.21,0,0,1,.16,1.32,7.66,7.66,0,0,1-.88,1.77,15,15,0,0,1-1.31,1.75q-.72.82-1.14,1.23c-.25.24-.54.49-.88.77a5.35,5.35,0,0,1-1.07.68,3.38,3.38,0,0,1-1.14.33,1.82,1.82,0,0,1-1.14-.27,15,15,0,0,1-1.58-1.14c-.62-.5-1.29-1.07-2-1.72s-1.43-1.32-2.15-2S7196.31,7229.25,7195.69,7228.6Z" transform="translate(-7148.56 -7148.5)"/><path d="M7203.75,7217.87a1,1,0,0,1-.73.29,1,1,0,0,1-.73-.32,3.71,3.71,0,0,1-.71-1.17,8.69,8.69,0,0,1-.46-1.55,13.27,13.27,0,0,1-.22-1.63,9,9,0,0,1,0-1.39,7.69,7.69,0,0,1,.67-2.52,6.38,6.38,0,0,1,1.42-2,8.22,8.22,0,0,1,2.3-1.58,6.63,6.63,0,0,1,2.5-.6,6,6,0,0,1,2.49.47,6.52,6.52,0,0,1,2.26,1.6,7.75,7.75,0,0,1,1.56,8.33,11.15,11.15,0,0,1,3.05.09,29.62,29.62,0,0,1,3,.66l.83.19.72.14.43.07.23,0a1,1,0,0,1,.7-.17,1.06,1.06,0,0,1,.64.32,1.08,1.08,0,0,1,.29.73,1,1,0,0,1-.33.74,1.52,1.52,0,0,1-1,.44,4.62,4.62,0,0,1-1-.05c-.29,0-.6-.1-.94-.17s-.71-.16-1.09-.27l-2-.45a11.63,11.63,0,0,0-2.1-.28,6.51,6.51,0,0,0-2,.18,3.71,3.71,0,0,0-1.65.9,1,1,0,0,1-.75.29,1.05,1.05,0,0,1-.71-.33,1,1,0,0,1-.3-.73,1,1,0,0,1,.34-.73,6.67,6.67,0,0,0,1.59-2.23,6.17,6.17,0,0,0,.49-2.33,5.62,5.62,0,0,0-.42-2.16,6,6,0,0,0-1.14-1.77,4.51,4.51,0,0,0-1.61-1.14,4,4,0,0,0-1.72-.29,4.49,4.49,0,0,0-1.72.48,6.45,6.45,0,0,0-1.59,1.13,4.39,4.39,0,0,0-1,1.41,6.14,6.14,0,0,0-.5,1.86,6.86,6.86,0,0,0,.12,2.1,7.07,7.07,0,0,0,.86,2.15.85.85,0,0,1,.16.66A1.06,1.06,0,0,1,7203.75,7217.87Zm9.75,9.14a1,1,0,0,1-.14-1.25,6.66,6.66,0,0,0-.35-.67,13.61,13.61,0,0,0-1.11-1.51c-.49-.61-1-1.25-1.66-1.92s-1.24-1.34-1.88-2q-1.5-1.57-2.79-3a18.13,18.13,0,0,1-1.93-2.52,1,1,0,0,1-.16-.68,1,1,0,0,1,.32-.61,1,1,0,0,1,.74-.28,1,1,0,0,1,.72.31,1.05,1.05,0,0,1,.14.2,16.12,16.12,0,0,0,1.82,2.34c.84.93,1.73,1.88,2.66,2.86l2.2,2.41c.72.79,1.35,1.53,1.88,2.23a11,11,0,0,1,.69.92,5.53,5.53,0,0,1,.6,1.12,3.12,3.12,0,0,1,.2,1.14,1.41,1.41,0,0,1-.49,1,1,1,0,0,1-.74.3A1,1,0,0,1,7213.5,7227Z" transform="translate(-7148.56 -7148.5)"/><path d="M7220.21,7204.66c.93,1,1.83,2,2.7,3s1.68,2,2.42,2.91l1.37,1.64q.61.75,1.05,1.2a1,1,0,0,1,.28.75,1,1,0,0,1-.32.71,1,1,0,0,1-.74.3,1,1,0,0,1-.72-.34c-.32-.33-.69-.75-1.1-1.25l-1.41-1.68c-.75-.91-1.54-1.88-2.4-2.89s-1.73-2-2.63-2.94l-.78-.79c-.34-.34-.72-.71-1.15-1.11s-.89-.79-1.37-1.17a10.35,10.35,0,0,0-1.43-.92,4,4,0,0,0-1.32-.43,1.21,1.21,0,0,0-1,.3,1,1,0,0,1-.75.29,1,1,0,0,1-.71-.32,1,1,0,0,1-.3-.74,1,1,0,0,1,.33-.73,3,3,0,0,1,1.67-.85,4.45,4.45,0,0,1,1.83.18,8.32,8.32,0,0,1,1.9.89,15.51,15.51,0,0,1,1.79,1.31c.57.48,1.1.95,1.58,1.43S7219.87,7204.31,7220.21,7204.66Z" transform="translate(-7148.56 -7148.5)"/><path d="M7222.34,7205.06c-.57-.6-1.15-1.23-1.73-1.87s-1.15-1.28-1.68-1.88-1-1.19-1.43-1.73a16.79,16.79,0,0,1-1-1.42,2.22,2.22,0,0,1-.38-1.57,4.12,4.12,0,0,1,.57-1.54,8.51,8.51,0,0,1,1.07-1.4c.41-.44.78-.82,1.11-1.13l2.15-2.05a1,1,0,0,1,1.05-.95,1,1,0,0,1,.72.31,1,1,0,0,1,.32.69,1.42,1.42,0,0,1-.15.72,2.48,2.48,0,0,1-.43.64,6.7,6.7,0,0,1-.51.54l-.86.8c-.29.26-.58.52-.86.79l-.55.55c-.27.27-.53.56-.79.87a5.76,5.76,0,0,0-.63.91.72.72,0,0,0-.08.72,21.11,21.11,0,0,0,1.75,2.31c.84,1,1.82,2.1,2.94,3.31l.64-.58c.24-.21.49-.45.76-.7s.37-.36.6-.6.47-.48.7-.74a8.74,8.74,0,0,0,.63-.76,3.21,3.21,0,0,0,.38-.67.88.88,0,0,1-.11-.62,1.13,1.13,0,0,1,.33-.6,1,1,0,0,1,.73-.28.94.94,0,0,1,.74.32,1.54,1.54,0,0,1,.41,1.23,3.2,3.2,0,0,1-.39,1.12,8,8,0,0,1-.77,1.16,11.11,11.11,0,0,1-.95,1.08l-.87.86-.75.71c-.23.22-.45.41-.65.57q2.12,2.17,3.84,3.77a19.17,19.17,0,0,0,2.65,2.19.23.23,0,0,0,.1.07.32.32,0,0,1,.09.08,1,1,0,0,1,.29.75,1,1,0,0,1-.33.71,1,1,0,0,1-1.29.14,18.47,18.47,0,0,1-1.86-1.42c-.64-.56-1.29-1.16-1.94-1.79s-1.29-1.27-1.9-1.9Z" transform="translate(-7148.56 -7148.5)"/><path d="M7240.89,7202.33a3.86,3.86,0,0,1-3.06,1.22,4.47,4.47,0,0,1-2.91-1.48,6.56,6.56,0,0,1-1.76-4,5.56,5.56,0,0,1,.27-2.14,4.56,4.56,0,0,1,1.19-1.85,8.39,8.39,0,0,1,2.17-1.54,12.35,12.35,0,0,1,1.91-.72,31.48,31.48,0,0,0-2.05-3.48,24.93,24.93,0,0,0-2.52-3.12c.24.66.47,1.36.68,2.11a10.54,10.54,0,0,1,.37,2.27,6.25,6.25,0,0,1-.26,2.17,4.33,4.33,0,0,1-1.19,1.88,3.45,3.45,0,0,1-3.56.91,5.4,5.4,0,0,1-1.68-.87,11.15,11.15,0,0,1-1.5-1.33,20.17,20.17,0,0,1-1.4-1.64c-.48-.61-1-1.3-1.47-2.06a1,1,0,0,1,.16-1.33,1,1,0,0,1,.74-.28,1,1,0,0,1,.72.31.24.24,0,0,1,.06.09l.06.08c.5.76,1,1.43,1.41,2s.85,1,1.21,1.42.51.51.82.78a4.12,4.12,0,0,0,1,.66,2.47,2.47,0,0,0,1,.25,1.47,1.47,0,0,0,1-.48,2.66,2.66,0,0,0,.82-1.92,8.68,8.68,0,0,0-.28-2.44,14.82,14.82,0,0,0-.86-2.45c-.35-.79-.66-1.43-.9-1.92a.94.94,0,0,1,.22-1.22,1.44,1.44,0,0,1,1.16-.43,2.88,2.88,0,0,1,1.24.43,7.47,7.47,0,0,1,1.16.87c.37.33.67.63.91.87a26.61,26.61,0,0,1,2.81,3.56,27,27,0,0,1,2.32,4.13,8.15,8.15,0,0,1,1,.17,1.89,1.89,0,0,1,1,.48,1,1,0,0,1,.27.74,1,1,0,0,1-.31.73,1,1,0,0,1-1,.24,15.07,15.07,0,0,1,.53,2.13,9.91,9.91,0,0,1,.14,2.23,6.73,6.73,0,0,1-.43,2.12A4.87,4.87,0,0,1,7240.89,7202.33Zm-4.47-1.69a2.51,2.51,0,0,0,1.48.83,1.9,1.9,0,0,0,1.56-.63,3,3,0,0,0,.88-1.53,6.34,6.34,0,0,0,.13-1.86,10,10,0,0,0-.35-1.94c-.18-.63-.37-1.21-.56-1.72a7.43,7.43,0,0,0-1.73.57,6.81,6.81,0,0,0-1.78,1.25,2.41,2.41,0,0,0-.72,1.21,3.48,3.48,0,0,0-.07,1.4,4.64,4.64,0,0,0,.41,1.34A4.32,4.32,0,0,0,7236.42,7200.64Z" transform="translate(-7148.56 -7148.5)"/><line class="cls-2" x1="20.8" y1="77.77" x2="63.22" y2="36.7"/><ellipse class="cls-3" cx="73.86" cy="25.39" rx="10.72" ry="10.82"/></svg>